{"asset":{"version":"2.0","generator":"VECTARY"},"scene":0,"extensionsUsed":["KHR_texture_transform"],"nodes":[{"translation":[0.007165151596069336,-0.00868694938677703,-0.0013495492935180677],"scale":[0.001,0.001,0.001],"rotation":[-0.7071067811865475,0,0,0.7071067811865476],"name":"Billy_Cotton_Pick_Up_5_Stick_mat(1)","mesh":0}],"materials":[{"pbrMetallicRoughness":{"baseColorFactor":[0.8117647058823529,0.8117647058823529,0.8117647058823529,1],"metallicFactor":1,"roughnessFactor":0},"name":"Mylar Silver","emissiveFactor":[0,0,0],"alphaMode":"OPAQUE","doubleSided":false}],"meshes":[{"primitives":[{"mode":4,"attributes":{"POSITION":1,"NORMAL":2},"material":0,"indices":0}]}],"accessors":[{"bufferView":0,"byteOffset":0,"componentType":5125,"count":50628,"type":"SCALAR"},{"bufferView":1,"byteOffset":0,"componentType":5126,"count":50628,"max":[58.59934997558594,29.406150817871094,90.99970245361328],"min":[-58.59934997558594,-29.406150817871094,0],"type":"VEC3"},{"bufferView":2,"byteOffset":0,"componentType":5126,"count":50628,"type":"VEC3"}],"bufferViews":[{"buffer":0,"byteOffset":0,"byteLength":202512,"target":34963},{"buffer":0,"byteOffset":202512,"byteLength":607536,"target":34962},{"buffer":0,"byteOffset":810048,"byteLength":607536,"target":34962}],"scenes":[{"nodes":[0],"name":"Project Name"}],"buffers":[{"byteLength":1417584,"uri":"ProjectName.bin"}]}